HIERARCHY
ROOT Hips
{
	OFFSET -0.001795 -0.223333 0.028219
	CHANNELS 6 Xposition Yposition Zposition Zrotation Yrotation Xrotation 
	JOINT LeftUpLeg
	{
		OFFSET 0.069520 -0.091406 -0.006815
		CHANNELS 3 Zrotation Yrotation Xrotation
		JOINT LeftLeg
		{
			OFFSET 0.034277 -0.375199 -0.004496
			CHANNELS 3 Zrotation Yrotation Xrotation
			JOINT LeftFoot
			{
				OFFSET -0.013596 -0.397961 -0.043693
				CHANNELS 3 Zrotation Yrotation Xrotation
				JOINT LeftToe
				{
					OFFSET 0.026358 -0.055791 0.119288
					CHANNELS 3 Zrotation Yrotation Xrotation
					End Site
					{
						OFFSET 0.000000 0.000000 0.000000
					}
				}
			}
		}
	}
	JOINT RightUpLeg
	{
		OFFSET -0.067670 -0.090522 -0.004320
		CHANNELS 3 Zrotation Yrotation Xrotation
		JOINT RightLeg
		{
			OFFSET -0.038290 -0.382569 -0.008850
			CHANNELS 3 Zrotation Yrotation Xrotation
			JOINT RightFoot
			{
				OFFSET 0.015774 -0.398415 -0.042312
				CHANNELS 3 Zrotation Yrotation Xrotation
				JOINT RightToe
				{
					OFFSET -0.025372 -0.048144 0.123348
					CHANNELS 3 Zrotation Yrotation Xrotation
					End Site
					{
						OFFSET 0.000000 0.000000 0.000000
					}
				}
			}
		}
	}
	JOINT Spine
	{
		OFFSET -0.002533 0.108963 -0.026696
		CHANNELS 3 Zrotation Yrotation Xrotation
		JOINT Spine1
		{
			OFFSET 0.005487 0.135180 0.001092
			CHANNELS 3 Zrotation Yrotation Xrotation
			JOINT Spine2
			{
				OFFSET 0.001457 0.052922 0.025425
				CHANNELS 3 Zrotation Yrotation Xrotation
				JOINT Neck
				{
					OFFSET -0.002778 0.213870 -0.042857
					CHANNELS 3 Zrotation Yrotation Xrotation
					JOINT Head
					{
						OFFSET 0.005152 0.064970 0.051349
						CHANNELS 3 Zrotation Yrotation Xrotation
						End Site
						{
							OFFSET 0.000000 0.000000 0.000000
						}
					}
				}
				JOINT LeftShoulder
				{
					OFFSET 0.078845 0.121749 -0.034090
					CHANNELS 3 Zrotation Yrotation Xrotation
					JOINT LeftArm
					{
						OFFSET 0.090977 0.030469 -0.008868
						CHANNELS 3 Zrotation Yrotation Xrotation
						JOINT LeftForeArm
						{
							OFFSET 0.259612 -0.012772 -0.027456
							CHANNELS 3 Zrotation Yrotation Xrotation
							JOINT LeftHand
							{
								OFFSET 0.249234 0.008986 -0.001171
								CHANNELS 3 Zrotation Yrotation Xrotation
								End Site
								{
									OFFSET 0.000000 0.000000 0.000000
								}
							}
						}
					}
				}
				JOINT RightShoulder
				{
					OFFSET -0.081759 0.118833 -0.038615
					CHANNELS 3 Zrotation Yrotation Xrotation
					JOINT RightArm
					{
						OFFSET -0.096012 0.032551 -0.009143
						CHANNELS 3 Zrotation Yrotation Xrotation
						JOINT RightForeArm
						{
							OFFSET -0.253742 -0.013329 -0.021401
							CHANNELS 3 Zrotation Yrotation Xrotation
							JOINT RightHand
							{
								OFFSET -0.255298 0.007772 -0.005559
								CHANNELS 3 Zrotation Yrotation Xrotation
								End Site
								{
									OFFSET 0.000000 0.000000 0.000000
								}
							}
						}
					}
				}
			}
		}
	}
}
MOTION
Frames: 16
Frame Time: 0.050000
0.000000 0.945076 0.000000 -1.856077 0.237638 0.811950 -0.349410 0.194361 2.018540 1.051417 -0.104399 -0.230823 -4.176067 -6.070456 4.716626 0.000000 0.000000 0.000000 -0.694178 0.144625 -1.347986 -0.355227 0.436891 9.334585 0.250463 -1.578027 4.543540 0.000000 0.000000 0.000000 -1.518894 -0.133509 5.361343 0.871351 -0.358433 -1.564869 0.114427 1.391368 5.515321 2.735665 -0.190695 -17.851938 0.000000 0.000000 0.000000 -27.747983 -3.683801 -1.008523 -41.671882 -5.202477 -3.121604 -9.094777 -22.163636 2.549577 0.000000 0.000000 0.000000 24.952991 6.000238 1.837634 47.714393 4.567794 -3.134316 2.779332 21.984598 1.267624 0.000000 0.000000 0.000000 
0.003492 0.943617 0.005725 -1.785336 0.111145 0.702323 -0.430267 0.275635 2.849370 0.629654 -0.038084 -0.771233 -4.087553 -6.134514 4.320148 0.000000 0.000000 0.000000 -0.860849 0.449656 -4.612612 -0.132317 0.685513 16.293831 -0.355531 -2.645995 3.769890 0.000000 0.000000 0.000000 -1.673943 -0.147464 6.208360 0.444402 -0.170293 -1.301872 0.200594 1.693128 5.143871 2.500510 0.154358 -19.709577 0.000000 0.000000 0.000000 -27.821349 -3.678099 -1.118567 -41.988908 -5.113246 -3.118118 -8.081136 -22.263915 2.353845 0.000000 0.000000 0.000000 24.213979 6.293763 2.085499 49.089032 4.448280 -3.236143 2.350118 23.139512 1.272796 0.000000 0.000000 0.000000 
0.006324 0.942238 0.012041 -1.490299 0.032210 0.137405 -0.743939 0.359973 3.595147 0.274029 -0.022178 -0.213990 -3.971388 -6.222115 3.783174 0.000000 0.000000 0.000000 -1.173811 0.898195 -9.672556 0.534880 0.909329 26.822020 -1.072714 -5.019912 5.692165 0.000000 0.000000 0.000000 -1.701561 -0.176169 7.266289 0.299844 -0.076756 -2.184329 -0.048201 0.917244 6.397677 1.801857 0.348720 -18.574764 0.000000 0.000000 0.000000 -27.019732 -4.236171 -0.344821 -42.051204 -6.526915 -2.867837 -8.342848 -20.899254 2.284400 0.000000 0.000000 0.000000 25.210905 7.542927 2.612619 47.783993 5.206931 -2.923496 2.108220 22.658305 1.172428 0.000000 0.000000 0.000000 
0.008139 0.941386 0.020219 -1.641882 0.427424 -0.753789 -0.125818 0.458893 4.999022 -0.583949 0.064899 -0.042543 -4.169158 -6.797306 3.451019 0.000000 0.000000 0.000000 -1.371779 1.174838 -13.019817 0.743187 1.035816 33.701393 -0.496214 -4.906842 8.972142 0.000000 0.000000 0.000000 -2.193687 -0.191512 9.128772 0.288412 -0.062929 -2.373078 0.929412 0.487201 7.121470 0.805960 1.091560 -21.599094 0.000000 0.000000 0.000000 -28.419032 -4.505737 -0.085535 -39.919328 -7.696218 -2.483103 -8.769400 -20.611378 2.341769 0.000000 0.000000 0.000000 24.820083 7.962261 2.742712 47.483577 5.588769 -2.791676 2.529627 23.734286 1.301964 0.000000 0.000000 0.000000 
0.008794 0.941424 0.031332 -1.543684 1.137648 -1.357303 -0.297518 0.595184 6.441305 -0.274909 0.037413 -0.240914 -4.541796 -7.463126 3.532011 0.000000 0.000000 0.000000 -1.952581 1.432096 -17.027880 2.031423 0.474942 38.577899 -1.178695 -7.622506 13.970353 0.000000 0.000000 0.000000 -2.520790 -0.196238 10.163231 1.168731 -0.461049 -2.375009 0.408209 -0.675215 7.462926 0.130560 1.365226 -21.426622 0.000000 0.000000 0.000000 -28.489088 -4.850763 0.424101 -39.378271 -8.234333 -2.406796 -8.464922 -20.534942 2.297735 0.000000 0.000000 0.000000 24.294841 8.204810 2.649561 47.520750 5.276464 -2.866897 3.533816 24.553431 1.522789 0.000000 0.000000 0.000000 
0.008458 0.940667 0.046110 -1.740443 1.955190 -1.737249 -0.022681 0.680744 7.742434 0.009520 0.006646 -0.218846 -4.851494 -8.222299 3.261875 0.000000 0.000000 0.000000 -2.485650 1.574067 -20.241088 3.136934 -0.192136 37.830062 -2.201156 -9.334182 13.839192 0.000000 0.000000 0.000000 -2.708109 -0.211272 11.087211 1.664723 -0.660716 -2.823808 1.118627 -1.845155 8.305940 -1.552105 2.261948 -23.266864 0.000000 0.000000 0.000000 -28.874628 -4.661562 0.672816 -39.003803 -8.608827 -2.462119 -8.408912 -20.802394 2.349047 0.000000 0.000000 0.000000 22.284803 8.146050 2.387972 48.946515 5.021538 -3.056282 3.669332 25.170330 1.565250 0.000000 0.000000 0.000000 
0.006903 0.938461 0.064460 -2.057263 1.920995 -2.136897 -0.177258 0.838002 9.409897 1.216260 -0.118955 -0.246614 -4.559314 -8.187129 2.407661 0.000000 0.000000 0.000000 -2.001023 1.738297 -21.337769 2.667759 0.011264 32.589984 -2.222204 -7.441720 5.912255 0.000000 0.000000 0.000000 -2.436139 -0.261970 11.914041 2.166059 -0.869911 -3.196001 1.119560 -1.825574 8.840835 -1.531336 2.278334 -23.888750 0.000000 0.000000 0.000000 -29.167009 -4.121581 0.320669 -38.579175 -9.360668 -2.265435 -8.440324 -20.913316 2.370582 0.000000 0.000000 0.000000 21.195840 7.779673 2.230875 49.944814 5.258350 -3.088791 3.932884 25.920083 1.682420 0.000000 0.000000 0.000000 
0.004075 0.935831 0.086189 -2.097292 2.463502 -2.297836 -0.279579 0.980481 11.066130 2.185294 -0.208983 -0.440226 -4.604312 -8.617242 1.876235 0.000000 0.000000 0.000000 -2.254708 1.706604 -21.814823 2.020024 0.122951 22.426003 -1.401167 -5.468941 5.468362 0.000000 0.000000 0.000000 -2.400738 -0.292915 12.625596 2.658702 -1.010576 -4.466557 0.984337 -2.179087 9.595179 -2.358426 2.726122 -24.271596 0.000000 0.000000 0.000000 -28.384991 -3.517267 0.019207 -38.878692 -9.994026 -2.159213 -8.894299 -21.177690 2.496744 0.000000 0.000000 0.000000 21.023542 7.145462 1.896282 50.459605 4.548234 -3.486048 3.850341 26.602770 1.723385 0.000000 0.000000 0.000000 
-0.000049 0.931194 0.111239 -2.137681 2.806193 -1.392200 -0.144349 1.022096 11.819897 2.806610 -0.257737 -0.660646 -4.427219 -8.878237 0.942290 0.000000 0.000000 0.000000 -2.228122 1.741150 -22.369615 1.187114 0.150197 11.369055 -0.934190 -5.986157 10.656562 0.000000 0.000000 0.000000 -1.775995 -0.324523 11.512318 2.508930 -0.970517 -3.890828 0.883539 -2.490167 8.591654 -2.327545 2.679322 -23.923040 0.000000 0.000000 0.000000 -27.589489 -2.890661 -0.341871 -39.300177 -9.924089 -2.115638 -9.143508 -21.983300 2.646995 0.000000 0.000000 0.000000 22.027440 6.459628 1.399343 49.994138 3.305110 -3.833675 4.027088 26.564084 1.741303 0.000000 0.000000 0.000000 
-0.005557 0.925390 0.139124 -1.736241 3.447724 -1.016091 -0.427017 1.151093 13.125969 3.720082 -0.354585 -0.541288 -4.371260 -9.342270 0.099565 0.000000 0.000000 0.000000 -2.088093 1.704550 -21.871537 -0.198883 0.241991 5.759340 0.603375 -3.761248 13.375291 0.000000 0.000000 0.000000 -1.801185 -0.327421 11.565533 2.912557 -1.131019 -4.048065 0.478056 -2.642469 8.146798 -2.586960 2.845759 -23.945595 0.000000 0.000000 0.000000 -27.520101 -2.843778 -0.483478 -38.909553 -10.237218 -1.937689 -9.056351 -21.866208 2.601669 0.000000 0.000000 0.000000 22.847700 5.995347 1.156920 49.792007 2.341333 -4.173617 2.986889 26.229274 1.503876 0.000000 0.000000 0.000000 
-0.012958 0.919123 0.170188 -1.698811 4.408109 -0.982864 0.214156 1.155664 14.737448 4.208974 -0.433059 -0.070720 -4.508826 -10.066039 -0.499096 0.000000 0.000000 0.000000 -1.295504 1.820354 -22.046270 -1.254600 0.468223 7.061865 1.666509 -2.179708 15.011816 0.000000 0.000000 0.000000 -1.110708 -0.411607 11.596718 2.662301 -1.023732 -3.821189 0.059162 -3.070112 7.686685 -1.586415 2.329155 -23.749946 0.000000 0.000000 0.000000 -26.524711 -2.820655 -0.518104 -39.121067 -11.085765 -1.619028 -9.124562 -21.595053 2.570153 0.000000 0.000000 0.000000 24.402649 5.634990 0.902628 49.330441 1.928157 -4.256585 2.026211 25.798801 1.280443 0.000000 0.000000 0.000000 
-0.022371 0.915877 0.204815 -1.771415 5.258835 -0.808766 1.378241 1.009716 15.784147 3.970194 -0.531123 1.720573 -4.524818 -9.774240 -0.113565 0.000000 0.000000 0.000000 -0.452457 1.953002 -22.216312 -1.672556 0.680364 10.353968 1.645185 -2.205413 15.390443 0.000000 0.000000 0.000000 -0.897915 -0.436577 11.450846 2.762460 -1.046356 -3.981018 0.373558 -3.947558 7.663366 -1.540356 2.262899 -24.307320 0.000000 0.000000 0.000000 -26.704388 -2.070301 -0.824829 -39.097796 -10.760387 -1.773622 -8.851549 -22.949798 2.709655 0.000000 0.000000 0.000000 24.763198 5.035064 0.350511 48.931536 1.391171 -4.378846 1.990951 25.655498 1.240835 0.000000 0.000000 0.000000 
-0.033495 0.917546 0.243178 -2.266074 5.914669 -0.524123 3.001247 0.712912 15.779434 3.915326 -0.783518 5.217222 -5.236582 -9.207772 2.612711 0.000000 0.000000 0.000000 0.480142 2.053890 -21.670630 -0.672775 0.548325 13.315150 0.694399 -3.320445 13.708178 0.000000 0.000000 0.000000 -0.216091 -0.497256 11.082408 3.051430 -1.137570 -4.361572 0.304554 -4.182550 7.488526 -0.592169 1.780245 -24.187556 0.000000 0.000000 0.000000 -26.798204 -2.094670 -0.882290 -39.376091 -10.253596 -1.903710 -8.586522 -23.746827 2.749820 0.000000 0.000000 0.000000 25.287546 4.214822 -0.130866 48.843957 0.587963 -4.678447 1.114326 25.364275 1.054539 0.000000 0.000000 0.000000 
-0.045715 0.923480 0.284486 -2.653127 5.896657 -0.186947 4.232663 0.451394 13.989654 3.974787 -1.289500 11.242295 -6.703842 -7.641674 9.026700 0.000000 0.000000 0.000000 1.260867 2.036547 -19.920276 0.836030 0.201440 14.255488 0.266588 -3.435428 11.334037 0.000000 0.000000 0.000000 -0.017535 -0.476549 10.289257 3.816439 -1.491604 -4.139465 0.235780 -4.885320 7.032766 -0.179441 1.379971 -22.386378 0.000000 0.000000 0.000000 -27.083010 -1.080794 -1.313764 -39.385685 -8.698281 -2.412024 -8.791431 -24.886848 2.965673 0.000000 0.000000 0.000000 25.082206 5.138069 0.180329 48.541498 0.680463 -4.494301 -0.072607 24.373250 0.740030 0.000000 0.000000 0.000000 
-0.057813 0.930911 0.326404 -3.176575 5.193548 0.416578 5.711614 0.151139 9.749898 3.307627 -1.989677 21.066243 -7.596823 -6.468611 13.696100 0.000000 0.000000 0.000000 2.736346 2.037766 -17.566188 1.440033 0.066190 13.595357 0.406946 -2.846007 10.055523 0.000000 0.000000 0.000000 0.653290 -0.429791 8.358248 3.698333 -1.449049 -4.067973 0.317696 -3.694643 7.110926 -0.478243 1.589206 -21.336838 0.000000 0.000000 0.000000 -27.019154 -1.133643 -1.569660 -39.619325 -6.906181 -2.878349 -9.998233 -25.956496 3.345100 0.000000 0.000000 0.000000 23.757376 3.687160 -0.300674 49.082143 0.644343 -4.655476 1.070058 23.762820 0.976393 0.000000 0.000000 0.000000 
-0.067699 0.936831 0.365286 -3.572765 4.830943 -0.194852 7.278090 -0.097938 3.941843 1.674357 -2.563424 33.574099 -7.478333 -3.486421 19.164008 0.000000 0.000000 0.000000 4.121918 1.667375 -12.971766 1.577014 0.013931 11.078877 0.573271 -2.165504 8.940740 0.000000 0.000000 0.000000 1.097445 -0.463827 8.363104 3.334131 -1.307779 -3.890493 0.803915 -2.822360 7.041231 -0.716985 1.787470 -21.152759 0.000000 0.000000 0.000000 -27.940680 -1.050489 -1.937571 -39.451368 -5.653919 -3.174542 -10.893846 -26.968624 3.665163 0.000000 0.000000 0.000000 22.427518 4.246907 0.310505 49.054820 0.561070 -4.741535 2.805481 24.651456 1.383146 0.000000 0.000000 0.000000 
